<svg width="16" height="16" viewBox="0 0 16 16" fill="none" xmlns="http://www.w3.org/2000/svg">
<path d="M7.99999 16C8.48724 16.0002 8.9578 15.8225 9.3233 15.5002C9.68879 15.178 9.92408 14.7334 9.98499 14.25C10.002 14.113 9.88799 14 9.74999 14H6.24999C6.11199 14 5.99799 14.113 6.01499 14.25C6.0759 14.7334 6.31119 15.178 6.67669 15.5002C7.04218 15.8225 7.51274 16.0002 7.99999 16Z" fill="#57606A"/>
<path fill-rule="evenodd" clip-rule="evenodd" d="M7.99999 1.5C7.07173 1.5 6.18149 1.86875 5.52511 2.52513C4.86873 3.1815 4.49999 4.07174 4.49999 5V7.947C4.49999 8.293 4.39799 8.63 4.20599 8.917L2.50299 11.473C2.50102 11.476 2.49998 11.4794 2.49999 11.483L2.50099 11.489C2.50099 11.491 2.50299 11.493 2.50499 11.495C2.50668 11.4967 2.50872 11.4981 2.51099 11.499L2.51799 11.5H13.482L13.489 11.499C13.4913 11.4981 13.4933 11.4968 13.495 11.495C13.4968 11.4933 13.4981 11.4913 13.499 11.489L13.5 11.482C13.5001 11.4784 13.499 11.4749 13.497 11.472L11.794 8.918C11.6024 8.63075 11.5002 8.29326 11.5 7.948V5C11.5 4.07174 11.1312 3.1815 10.4749 2.52513C9.81848 1.86875 8.92824 1.5 7.99999 1.5ZM2.99999 5C2.99999 3.67392 3.52677 2.40215 4.46445 1.46447C5.40213 0.526784 6.6739 0 7.99999 0C9.32607 0 10.5978 0.526784 11.5355 1.46447C12.4732 2.40215 13 3.67392 13 5V7.947C13 7.997 13.015 8.045 13.042 8.086L14.745 10.641C14.8971 10.8696 14.9844 11.1352 14.9975 11.4095C15.0106 11.6837 14.9491 11.9564 14.8195 12.1985C14.6899 12.4406 14.4971 12.643 14.2615 12.7841C14.026 12.9253 13.7566 12.9999 13.482 13H2.51799C2.24324 13 1.97365 12.9254 1.73795 12.7842C1.50226 12.643 1.30931 12.4405 1.17967 12.1983C1.05003 11.956 0.988568 11.6831 1.00183 11.4087C1.01509 11.1343 1.10259 10.8686 1.25499 10.64L2.95799 8.086C2.98543 8.04484 3.00005 7.99647 2.99999 7.947V5Z" fill="#57606A"/>
</svg>
