<svg width="16" height="16" viewBox="0 0 16 16" fill="none" xmlns="http://www.w3.org/2000/svg">
<path fill-rule="evenodd" clip-rule="evenodd" d="M7.467 0.132994C7.81369 0.022136 8.18631 0.022136 8.533 0.132994L13.783 1.81299C14.1364 1.92599 14.4447 2.14835 14.6634 2.44798C14.8822 2.74761 15 3.10901 15 3.47999V6.99999C15 8.56599 14.68 10.182 13.697 11.682C12.714 13.18 11.112 14.495 8.665 15.537C8.45469 15.6264 8.22852 15.6725 8 15.6725C7.77148 15.6725 7.54531 15.6264 7.335 15.537C4.888 14.495 3.286 13.18 2.303 11.682C1.32 10.182 1 8.56599 1 6.99999V3.47999C0.99997 3.10901 1.11784 2.74761 1.33658 2.44798C1.55533 2.14835 1.86364 1.92599 2.217 1.81299L7.467 0.132994ZM8.077 1.56199C8.02725 1.546 7.97375 1.546 7.924 1.56199L2.674 3.24199C2.62352 3.2581 2.57946 3.28984 2.54818 3.33262C2.51691 3.37539 2.50004 3.427 2.5 3.47999V6.99999C2.5 8.35799 2.775 9.66599 3.557 10.86C4.341 12.054 5.678 13.2 7.923 14.157C7.9474 14.1672 7.97357 14.1724 8 14.1724C8.02643 14.1724 8.0526 14.1672 8.077 14.157C10.322 13.201 11.659 12.053 12.443 10.859C13.225 9.66599 13.5 8.35999 13.5 6.99999V3.47999C13.4998 3.42717 13.4828 3.37579 13.4515 3.33321C13.4203 3.29063 13.3763 3.25905 13.326 3.24299L8.076 1.56299L8.077 1.56199ZM9 10.5C9 10.7652 8.89464 11.0196 8.70711 11.2071C8.51957 11.3946 8.26522 11.5 8 11.5C7.73478 11.5 7.48043 11.3946 7.29289 11.2071C7.10536 11.0196 7 10.7652 7 10.5C7 10.2348 7.10536 9.98042 7.29289 9.79289C7.48043 9.60535 7.73478 9.49999 8 9.49999C8.26522 9.49999 8.51957 9.60535 8.70711 9.79289C8.89464 9.98042 9 10.2348 9 10.5ZM8.75 4.74999C8.75 4.55108 8.67098 4.36032 8.53033 4.21966C8.38968 4.07901 8.19891 3.99999 8 3.99999C7.80109 3.99999 7.61032 4.07901 7.46967 4.21966C7.32902 4.36032 7.25 4.55108 7.25 4.74999V7.74999C7.25 7.94891 7.32902 8.13967 7.46967 8.28032C7.61032 8.42098 7.80109 8.49999 8 8.49999C8.19891 8.49999 8.38968 8.42098 8.53033 8.28032C8.67098 8.13967 8.75 7.94891 8.75 7.74999V4.74999Z" fill="#57606A"/>
</svg>
